Coordinates
version=1
nRows=6
nColumns=63
inDegrees=yes

Units are S.I. units (second, meters, Newtons, ...)
If the header above contains a line with 'inDegrees', this indicates whether rotational values are in degrees (yes) or radians (no).

endheader
time	pelvis_tilt	pelvis_list	pelvis_rotation	pelvis_tx	pelvis_ty	pelvis_tz	hip_flexion_r	hip_adduction_r	hip_rotation_r	knee_angle_r	knee_angle_r_beta	ankle_angle_r	subtalar_angle_r	mtp_angle_r	hip_flexion_l	hip_adduction_l	hip_rotation_l	knee_angle_l	knee_angle_l_beta	ankle_angle_l	subtalar_angle_l	mtp_angle_l	L5_S1_Flex_Ext	L5_S1_Lat_Bending	L5_S1_axial_rotation	L4_L5_Flex_Ext	L4_L5_Lat_Bending	L4_L5_axial_rotation	L3_L4_Flex_Ext	L3_L4_Lat_Bending	L3_L4_axial_rotation	L2_L3_Flex_Ext	L2_L3_Lat_Bending	L2_L3_axial_rotation	L1_L2_Flex_Ext	L1_L2_Lat_Bending	L1_L2_axial_rotation	L1_T12_Flex_Ext	L1_T12_Lat_Bending	L1_T12_axial_rotation	Abs_r3	Abs_r2	Abs_r1	Abs_t1	Abs_t2	neck_flexion	neck_bending	neck_rotation	arm_flex_r	arm_add_r	arm_rot_r	elbow_flex_r	pro_sup_r	wrist_flex_r	wrist_dev_r	arm_flex_l	arm_add_l	arm_rot_l	elbow_flex_l	pro_sup_l	wrist_flex_l	wrist_dev_l
3.915254	-8.832943	-19.531573	63.890806	0.291658	0.761731	1.103620	36.165215	8.641731	12.207489	1.512817	0.026404	58.569824	10.333603	0.000000	30.362374	-5.730572	-42.088187	15.224474	0.265717	41.196787	16.547797	0.000000	0.470514	-1.839652	10.305725	0.873791	-2.446738	10.949833	0.773007	-4.472931	10.949833	0.537750	-4.472931	9.017509	0.436919	-3.751419	8.373402	0.268851	-2.849622	7.729294	3.360831	-20.810516	57.317351	0.000000	0.000000	-17.741702	22.719203	-18.772755	197.400704	195.593980	470.673393	144.670422	65.928091	-9.085401	4.840268	236.947595	146.087362	-154.824288	123.403417	89.427592	27.263076	11.725636
3.932203	-9.740046	-16.913967	66.069756	0.298591	0.767118	1.097798	32.944926	5.150369	8.974408	3.709312	0.064740	47.165195	13.322622	0.000000	28.129117	-3.895259	-39.178911	15.048902	0.262653	40.211645	15.825415	0.000000	0.194543	-1.990984	8.246326	0.361287	-2.648009	8.761721	0.319615	-4.840879	8.761721	0.222344	-4.840879	7.215535	0.180653	-4.060015	6.700140	0.111162	-3.084034	6.184744	1.389604	-22.522411	45.863590	0.000000	0.000000	-21.223376	19.965031	-12.869247	212.231537	194.632746	491.826680	144.424605	73.715709	-7.806583	6.328722	243.074573	151.382701	-161.985800	125.880235	89.426981	29.583733	16.154867
3.949153	-10.552298	-14.498184	68.657092	0.303524	0.772105	1.091750	30.241645	1.920508	5.898951	6.373321	0.111235	37.778761	15.677766	0.000000	26.079226	-2.193910	-35.853217	14.861226	0.259377	39.393596	15.237293	0.000000	-0.085625	-2.096336	6.283291	-0.159015	-2.788126	6.675997	-0.140674	-5.097030	6.675997	-0.097861	-5.097030	5.497880	-0.079512	-4.274848	5.105174	-0.048926	-3.247224	4.712468	-0.611614	-23.714167	34.945779	0.000000	0.000000	-24.099122	16.591217	-6.784667	225.648116	192.734353	511.462571	143.915202	80.587627	-6.490256	7.706271	246.826499	156.241941	-167.760090	128.455299	89.413382	32.782575	20.763884
3.966102	-11.338167	-12.375361	71.398458	0.306798	0.776566	1.085800	28.150596	-1.021618	3.285884	9.416399	0.164347	30.849865	17.341271	0.000000	24.214756	-0.603113	-32.421788	14.638203	0.255485	38.717795	14.789272	0.000000	-0.353220	-2.171312	4.513159	-0.655964	-2.887845	4.795231	-0.580305	-5.279327	4.795231	-0.403695	-5.279327	3.949014	-0.328000	-4.427739	3.666941	-0.201830	-3.363362	3.384869	-2.523013	-24.562313	25.100835	0.000000	0.000000	-26.337398	13.029855	-0.978596	237.110750	190.126232	528.775612	143.239449	86.343323	-5.197310	8.914496	248.715315	160.460936	-172.340907	130.868941	89.381473	36.669910	25.280305
3.983051	-11.908703	-10.571785	74.214355	0.308535	0.780527	1.080273	26.606653	-3.524627	1.228187	12.607305	0.220039	26.725226	18.318688	0.000000	22.519541	0.729658	-28.968766	14.418853	0.251656	38.210535	14.425242	0.000000	-0.596093	-2.193879	2.980575	-1.107004	-2.917860	3.166861	-0.979321	-5.334198	3.166861	-0.681274	-5.334198	2.608003	-0.553532	-4.473759	2.421717	-0.340607	-3.398319	2.235431	-4.257830	-24.817603	16.577065	0.000000	0.000000	-27.974982	9.429230	4.368986	246.214638	187.150986	543.181825	142.489437	90.824186	-4.059744	10.004112	249.535528	163.906527	-176.268696	133.001735	89.339355	40.645195	29.237890
4.000000	-12.058397	-9.155681	77.164067	0.309034	0.784044	1.075133	25.591376	-5.489887	-0.009424	15.761301	0.275087	25.725485	18.415878	0.000000	21.027217	1.691110	-25.510606	14.259163	0.248869	37.872543	14.155415	0.000000	-0.789854	-2.154608	1.728064	-1.466837	-2.865629	1.836068	-1.297650	-5.238714	1.836068	-0.902724	-5.238714	1.512056	-0.733458	-4.393677	1.404052	-0.451322	-3.337488	1.296048	-5.641845	-24.373359	9.610975	0.000000	0.000000	-29.090042	6.210053	8.774388	252.442351	184.121330	553.901163	141.859284	93.856381	-3.099909	10.962150	249.659899	166.495693	-179.504681	134.719038	89.284869	44.233612	32.315387
